<?xml version="1.0" encoding="UTF-8" standalone="no"?><!DOCTYPE svg PUBLIC "-//W3C//DTD SVG 1.1//EN" "http://www.w3.org/Graphics/SVG/1.1/DTD/svg11.dtd"><svg width="120px" height="28px" viewBox="0 0 465 116" version="1.1" xmlns="http://www.w3.org/2000/svg" xmlns:xlink="http://www.w3.org/1999/xlink" xml:space="preserve" xmlns:serif="http://www.serif.com/" style="fill-rule:evenodd;clip-rule:evenodd;stroke-linejoin:round;stroke-miterlimit:2;"><g><g><path id="HR" d="M19.301,115.807l95.239,0l0,-96.301c0,-0 0,-19.506 -19.301,-19.506l-75.948,0c-0,0 -19.291,0 -19.291,19.506l0,76.805c0,0 0,19.496 19.301,19.496Zm61.101,-57.75c3.633,-4.196 6.224,-8.791 7.307,-13.099c0.618,-2.395 0.769,-4.718 0.365,-6.837c-1.772,-9.353 -13.603,-11.134 -26.457,-4.052l-1.761,-9.221l-13.613,7.594l2.207,11.564c1.417,-0.901 2.813,-1.464 4.099,-1.597c4.331,-0.46 5.546,4.319 2.742,10.654c-1.002,2.221 -2.378,4.37 -3.927,6.232l2.581,13.56l0.01,0.021l0.031,0.235c1.973,9.18 13.815,10.869 26.649,3.695c12.702,-7.093 21.618,-20.192 20.313,-29.566c-0.517,3.766 -4.18,8.381 -9.089,11.104c-5.212,2.906 -10.03,2.712 -11.447,-0.246c-0,-0.021 -0.01,-0.021 -0.01,-0.041Zm-38.066,7.317c-4.331,0.43 -5.556,-4.349 -2.742,-10.694c1.133,-2.518 2.742,-4.902 4.534,-6.908l-2.439,-12.782l-26.771,14.952l7.733,40.659l26.77,-14.931l-2.348,-12.363c-1.629,1.146 -3.269,1.914 -4.737,2.067Z" style="fill:#fff;"/><g id="CMGT"><g><path d="M150.347,59.925c-0,-6.972 1.411,-13.181 4.233,-18.626c2.822,-5.445 6.856,-9.678 12.102,-12.7c5.245,-3.021 11.421,-4.532 18.526,-4.532c6.109,0 11.571,1.146 16.385,3.437c4.814,2.291 8.732,5.528 11.753,9.711c3.022,4.184 5.03,9.064 6.026,14.642l-23.307,0c-1.063,-2.324 -2.573,-4.134 -4.532,-5.428c-1.959,-1.295 -4.2,-1.943 -6.723,-1.943c-3.719,0 -6.657,1.395 -8.815,4.184c-2.158,2.789 -3.237,6.54 -3.237,11.255c-0,4.715 1.079,8.466 3.237,11.255c2.158,2.789 5.096,4.184 8.815,4.184c2.523,-0 4.764,-0.648 6.723,-1.943c1.959,-1.294 3.469,-3.104 4.532,-5.428l23.307,-0c-0.996,5.578 -3.004,10.458 -6.026,14.642c-3.021,4.183 -6.939,7.42 -11.753,9.711c-4.814,2.291 -10.276,3.437 -16.385,3.437c-7.105,-0 -13.281,-1.511 -18.526,-4.532c-5.246,-3.022 -9.28,-7.255 -12.102,-12.7c-2.822,-5.445 -4.233,-11.654 -4.233,-18.626Z" style="fill:#fff;fill-rule:nonzero;"/><path d="M316.27,24.765l0,70.519l-22.012,0l-0,-35.16l-10.857,35.16l-18.925,0l-10.857,-35.16l0,35.16l-22.112,0l0,-70.519l27.093,-0l15.538,42.332l15.14,-42.332l26.992,-0Z" style="fill:#fff;fill-rule:nonzero;"/><path d="M373.626,48.869c-0.863,-1.395 -2.092,-2.474 -3.686,-3.237c-1.593,-0.764 -3.519,-1.146 -5.777,-1.146c-4.249,0 -7.536,1.378 -9.86,4.134c-2.325,2.756 -3.487,6.524 -3.487,11.305c0,5.511 1.295,9.628 3.885,12.351c2.59,2.722 6.574,4.084 11.952,4.084c5.113,-0 9.23,-2.059 12.351,-6.176l-17.63,0l0,-15.638l35.958,0l-0,22.113c-3.055,5.245 -7.272,9.744 -12.65,13.496c-5.379,3.752 -12.185,5.628 -20.419,5.628c-7.304,-0 -13.662,-1.511 -19.074,-4.532c-5.412,-3.022 -9.562,-7.255 -12.451,-12.7c-2.888,-5.445 -4.333,-11.654 -4.333,-18.626c0,-6.972 1.445,-13.181 4.333,-18.626c2.889,-5.445 7.022,-9.678 12.401,-12.7c5.379,-3.021 11.687,-4.532 18.925,-4.532c9.23,0 16.75,2.225 22.56,6.674c5.81,4.449 9.247,10.492 10.309,18.128l-23.307,-0Z" style="fill:#fff;fill-rule:nonzero;"/><path d="M464.846,24.765l0,17.53l-18.725,0l-0,52.989l-22.112,0l-0,-52.989l-18.527,0l0,-17.53l59.364,-0Z" style="fill:#fff;fill-rule:nonzero;"/></g></g></g></g></svg>