<svg width="273px" height="28px" viewBox="0 0 273 28" version="1.1" xmlns="http://www.w3.org/2000/svg" xmlns:xlink="http://www.w3.org/1999/xlink">
    <defs>
        <path id="path-1" d="M27.4896636,27.8526316 L0,27.8526316 L0,14.0294737 L0,0.206315789 L27.4896636,0.206315789 L27.4896636,27.8526316 L27.4896636,27.8526316 Z"></path>
    </defs>
    <g id="Page-1" stroke="none" stroke-width="1" fill="none" fill-rule="evenodd">
        <g id="Artboard">
            <g id="HR_logo_mini_grijs">
                <g id="Group-3">
                    <mask id="mask-2" fill="white">
                        <use xlink:href="#path-1"></use>
                    </mask>
                    <g id="Clip-2"></g>
                    <path d="M4.632216,28 L27.4896636,28 L27.4896636,4.8877193 C27.4896636,4.8877193 27.4896636,0.206315789 22.8574476,0.206315789 L4.62978694,0.206315789 C4.62978694,0.206315789 0,0.206315789 0,4.8877193 L0,23.3210526 C0,23.3210526 0,28 4.632216,28 Z M19.2964467,14.14 C20.168479,13.1329825 20.7903182,12.0301754 21.0502275,10.9961404 C21.1984001,10.4214035 21.234836,9.86385965 21.1376736,9.3554386 C20.7125883,7.11052632 17.873018,6.68315789 14.7881127,8.38280702 L14.3654564,6.16982456 L11.0983717,7.9922807 L11.6279066,10.7677193 C11.9679749,10.5515789 12.3031851,10.4164912 12.6116756,10.3845614 C13.651313,10.2740351 13.9428001,11.4210526 13.2699507,12.9414035 C13.0294738,13.474386 12.6991218,13.9901754 12.3274757,14.437193 L12.9468858,17.6915789 L12.9493149,17.6964912 L12.9566021,17.7529825 C13.4302686,19.9561404 16.2722679,20.3614035 19.3523151,18.6396491 C22.4007844,16.9375439 24.5407856,13.7936842 24.227437,11.5438596 C24.103555,12.4477193 23.2242355,13.5554386 22.0461418,14.2087719 C20.7951763,14.9063158 19.6389441,14.8596491 19.2988758,14.1498246 C19.2988758,14.1449123 19.2964467,14.1449123 19.2964467,14.14 Z M10.1607549,15.8961404 C9.1211175,15.9992982 8.82720133,14.8522807 9.5024798,13.3294737 C9.77453444,12.7252632 10.1607549,12.1529825 10.5906983,11.6715789 L10.0052951,8.60385965 L3.58043334,12.1922807 L5.43623461,21.9505263 L11.8610963,18.3670175 L11.2975546,15.4 C10.906476,15.6750877 10.5129684,15.8592982 10.1607549,15.8961404 Z" id="Combined-Shape" fill="#FFFFFF" mask="url(#mask-2)"></path>
                </g>
                <path d="M45.5108542,20.0814035 L45.5108542,15.014386 L40.8349151,15.014386 L40.8349151,20.0814035 L38.3815653,20.0814035 L38.3815653,8.02666667 L40.8349151,8.02666667 L40.8349151,12.7522807 L45.5108542,12.7522807 L45.5108542,8.02666667 L47.961775,8.02666667 L47.961775,20.0814035 L45.5108542,20.0814035" id="Fill-6" fill="#FFFFFF"></path>
                <path d="M56.2132892,10.1831579 C54.2846162,10.1831579 52.6231397,11.6175439 52.6231397,14.1154386 C52.6231397,16.7140351 54.3696333,18.025614 56.2132892,18.025614 C58.171111,18.025614 59.8180132,16.7533333 59.8180132,14.1350877 C59.8180132,11.602807 58.2609862,10.1831579 56.2132892,10.1831579 L56.2132892,10.1831579 Z M56.0724038,20.3540351 C52.6741499,20.3540351 50.01433,17.8340351 50.01433,14.2873684 C50.01433,10.6252632 52.637714,7.81298246 56.2642995,7.81298246 C59.7670029,7.81298246 62.4462553,10.2322807 62.4462553,13.9214035 C62.4462553,17.745614 59.7111346,20.3540351 56.0724038,20.3540351 L56.0724038,20.3540351 Z" id="Fill-7" fill="#FFFFFF"></path>
                <path d="M70.6564756,20.282807 C67.2630798,20.282807 64.1101609,18.7501754 64.1101609,14.1007018 C64.1101609,10.0063158 66.859856,7.84491228 70.590891,7.84491228 C72.4977025,7.84491228 73.7778167,8.39508772 74.3365003,8.82245614 L73.6539347,11.1754386 C73.092822,10.7161404 71.8831505,10.1340351 70.4500055,10.1340351 C68.4363154,10.1340351 66.7918423,11.3915789 66.7918423,14.1007018 C66.7918423,16.7729825 68.4533188,18.1533333 70.9066687,18.1533333 C71.4289164,18.1533333 72.3228102,18.1091228 72.6920272,17.8340351 L72.6920272,14.385614 L75.0725053,14.385614 L75.0725053,19.162807 C74.2660576,19.7105263 72.6580204,20.282807 70.6564756,20.282807" id="Fill-8" fill="#FFFFFF"></path>
                <path d="M77.4918483,20.0814035 L77.4918483,8.02666667 L84.7061543,8.02666667 L84.7061543,10.2003509 L79.9597725,10.2003509 L79.9597725,12.7326316 L84.3029305,12.7326316 L84.3029305,14.9284211 L79.9597725,14.9284211 L79.9597725,17.9101754 L85.145814,17.9101754 L85.145814,20.0814035 L77.4918483,20.0814035" id="Fill-9" fill="#FFFFFF"></path>
                <path d="M91.0824348,20.2950877 C88.9448627,20.2950877 87.7157587,19.6049123 86.8753042,19.1136842 L87.4024101,16.5249123 C88.3278816,17.2887719 89.9577804,18.0108772 90.9051135,18.0108772 C92.0079064,18.0108772 92.6394618,17.5 92.6394618,16.7901754 C92.6394618,16.065614 92.2532414,15.5645614 91.4297903,15.3042105 L89.819324,14.7712281 C87.4534203,13.9901754 87.2080853,12.7891228 87.2080853,11.1950877 C87.2080853,9.68701754 88.7141021,7.81298246 91.131016,7.81298246 C92.9528105,7.81298246 93.793265,8.07578947 94.8086117,8.78315789 L94.2329247,11.3719298 C93.1301318,10.3821053 92.2702448,10.1094737 91.2913339,10.1094737 C90.3950111,10.1094737 89.7488813,10.6252632 89.7488813,11.1410526 C89.7488813,11.794386 90.1180983,12.1480702 91.007134,12.4477193 L92.4961473,12.9463158 C94.7405981,13.685614 95.228839,14.962807 95.228839,16.6550877 C95.228839,18.5414035 93.426477,20.2950877 91.0824348,20.2950877" id="Fill-10" fill="#FFFFFF"></path>
                <path d="M102.887663,20.282807 C99.9242105,20.282807 96.9486129,18.7207018 96.9486129,14.2873684 C96.9486129,10.5368421 99.083756,7.88175439 103.026119,7.88175439 C105.195269,7.88175439 106.594407,8.86912281 106.594407,8.86912281 L105.773385,11.2417544 C104.932931,10.5736842 104.128912,10.2322807 102.887663,10.2322807 C100.835108,10.2322807 99.4869798,11.725614 99.4869798,14.0245614 C99.4869798,16.8270175 101.517673,17.8512281 103.252022,17.8512281 C104.619582,17.8512281 105.336155,17.5319298 106.159606,16.8270175 L107.00006,19.0424561 C105.756382,20.0126316 104.354815,20.282807 102.887663,20.282807" id="Fill-11" fill="#FFFFFF"></path>
                <path d="M116.490395,20.0814035 L116.490395,15.014386 L111.816885,15.014386 L111.816885,20.0814035 L109.363535,20.0814035 L109.363535,8.02666667 L111.816885,8.02666667 L111.816885,12.7522807 L116.490395,12.7522807 L116.490395,8.02666667 L118.941315,8.02666667 L118.941315,20.0814035 L116.490395,20.0814035" id="Fill-12" fill="#FFFFFF"></path>
                <path d="M127.19283,10.1831579 C125.266586,10.1831579 123.60268,11.6175439 123.60268,14.1154386 C123.60268,16.7140351 125.354032,18.025614 127.19283,18.025614 C129.15551,18.025614 130.799983,16.7533333 130.799983,14.1350877 C130.799983,11.602807 129.242956,10.1831579 127.19283,10.1831579 L127.19283,10.1831579 Z M127.051944,20.3540351 C123.65369,20.3540351 120.99387,17.8340351 120.99387,14.2873684 C120.99387,10.6252632 123.619684,7.81298246 127.24384,7.81298246 C130.746543,7.81298246 133.428225,10.2322807 133.428225,13.9214035 C133.428225,17.745614 130.697962,20.3540351 127.051944,20.3540351 L127.051944,20.3540351 Z" id="Fill-13" fill="#FFFFFF"></path>
                <path d="M141.269228,10.1831579 C139.342984,10.1831579 137.679078,11.6175439 137.679078,14.1154386 C137.679078,16.7140351 139.435288,18.025614 141.269228,18.025614 C143.234337,18.025614 144.881239,16.7533333 144.881239,14.1350877 C144.881239,11.602807 143.319354,10.1831579 141.269228,10.1831579 L141.269228,10.1831579 Z M141.133201,20.3540351 C137.734947,20.3540351 135.072698,17.8340351 135.072698,14.2873684 C135.072698,10.6252632 137.70094,7.81298246 141.322667,7.81298246 C144.825371,7.81298246 147.507052,10.2322807 147.507052,13.9214035 C147.507052,17.745614 144.771932,20.3540351 141.133201,20.3540351 L141.133201,20.3540351 Z" id="Fill-14" fill="#FFFFFF"></path>
                <path d="M149.654341,20.0814035 L149.654341,8.02666667 L152.11012,8.02666667 L152.11012,17.8512281 L157.310735,17.8512281 L157.310735,20.0814035 L149.654341,20.0814035" id="Fill-15" fill="#FFFFFF"></path>
                <path d="M170.792014,10.1807018 C170.408223,10.1807018 169.95156,10.2101754 169.621208,10.2494737 L169.621208,13.4375439 C169.621208,13.4375439 170.342638,13.5259649 170.792014,13.5259649 C171.863229,13.5259649 172.421913,12.7964912 172.421913,11.7673684 C172.421913,10.8733333 171.80979,10.1807018 170.792014,10.1807018 L170.792014,10.1807018 Z M173.806477,20.2410526 L170.374216,15.4908772 L169.64064,15.4736842 L169.64064,20.1796491 L167.18729,20.1796491 L167.18729,8.15929825 C167.18729,8.15929825 169.268994,7.99964912 170.702139,7.99964912 C173.544138,7.99964912 174.889837,9.36280702 174.889837,11.7059649 C174.889837,13.5014035 173.82348,14.6803509 172.985455,15.102807 L176.468726,19.7031579 L173.806477,20.2410526 L173.806477,20.2410526 Z" id="Fill-16" fill="#FFFFFF"></path>
                <path d="M183.012611,10.2838596 C181.088796,10.2838596 179.422462,11.7157895 179.422462,14.2136842 C179.422462,16.817193 181.171384,18.1336842 183.012611,18.1336842 C184.972862,18.1336842 186.624622,16.8515789 186.624622,14.2284211 C186.624622,11.7059649 185.065166,10.2838596 183.012611,10.2838596 L183.012611,10.2838596 Z M182.876584,20.4473684 C179.480759,20.4473684 176.816081,17.937193 176.816081,14.3905263 C176.816081,10.7259649 179.444323,7.91122807 183.070909,7.91122807 C186.571183,7.91122807 189.248006,10.3354386 189.248006,14.0196491 C189.248006,17.8463158 186.520173,20.4473684 182.876584,20.4473684 L182.876584,20.4473684 Z" id="Fill-17" fill="#FFFFFF"></path>
                <path d="M196.323856,10.4803509 L196.323856,20.1796491 L193.870506,20.1796491 L193.870506,10.5122807 L190.494114,10.5122807 L190.494114,8.13964912 L199.668671,8.13964912 L199.668671,10.4803509 L196.323856,10.4803509" id="Fill-18" fill="#FFFFFF"></path>
                <path d="M207.140457,10.4803509 L207.140457,20.1796491 L204.696823,20.1796491 L204.696823,10.5122807 L201.315573,10.5122807 L201.315573,8.13964912 L210.49013,8.13964912 L210.49013,10.4803509 L207.140457,10.4803509" id="Fill-19" fill="#FFFFFF"></path>
                <path d="M212.280346,20.1796491 L212.280346,8.12491228 L219.489794,8.12491228 L219.489794,10.3010526 L214.745841,10.3010526 L214.745841,12.8357895 L219.088999,12.8357895 L219.088999,15.0291228 L214.745841,15.0291228 L214.745841,18.0059649 L219.931883,18.0059649 L219.931883,20.1796491 L212.280346,20.1796491" id="Fill-20" fill="#FFFFFF"></path>
                <path d="M226.026393,10.1807018 C225.637743,10.1807018 225.183509,10.2101754 224.84587,10.2494737 L224.84587,13.4375439 C224.84587,13.4375439 225.5673,13.5259649 226.026393,13.5259649 C227.09275,13.5259649 227.651433,12.7964912 227.651433,11.7673684 C227.651433,10.8733333 227.041739,10.1807018 226.026393,10.1807018 L226.026393,10.1807018 Z M229.035997,20.2410526 L225.603736,15.4908772 L224.87016,15.4736842 L224.87016,20.1796491 L222.414381,20.1796491 L222.414381,8.15929825 C222.414381,8.15929825 224.503372,7.99964912 225.934088,7.99964912 C228.773659,7.99964912 230.116928,9.36280702 230.116928,11.7059649 C230.116928,13.5014035 229.053,14.6803509 228.214975,15.102807 L231.698246,19.7031579 L229.035997,20.2410526 L229.035997,20.2410526 Z" id="Fill-21" fill="#FFFFFF"></path>
                <path d="M237.457545,10.1807018 C236.833277,10.1807018 235.74263,10.2666667 235.74263,10.2666667 L235.74263,18.0403509 C236.058407,18.1508772 236.687534,18.2515789 237.583857,18.2515789 C239.684993,18.2515789 241.171577,16.2694737 241.171577,13.9950877 C241.171577,11.4898246 239.208897,10.1807018 237.457545,10.1807018 L237.457545,10.1807018 Z M237.037318,20.3957895 C235.264105,20.3957895 233.257702,20.1354386 233.257702,20.1354386 L233.257702,8.13964912 C233.257702,8.13964912 235.429281,7.91122807 237.180633,7.91122807 C241.88815,7.91122807 243.726947,10.4607018 243.726947,13.6536842 C243.726947,17.1340351 241.978025,20.3957895 237.037318,20.3957895 L237.037318,20.3957895 Z" id="Fill-22" fill="#FFFFFF"></path>
                <path d="M249.879754,11.2957895 L248.349447,15.26 L251.276464,15.26 L249.879754,11.2957895 L249.879754,11.2957895 Z M253.12012,20.2189474 L251.891016,17.1905263 L247.72275,17.1905263 L246.498504,20.1796491 L243.940705,20.1796491 L248.968857,8.13964912 L251.084568,8.13964912 L255.743504,20.194386 L253.12012,20.2189474 L253.12012,20.2189474 Z" id="Fill-23" fill="#FFFFFF"></path>
                <path d="M269.931639,20.2189474 L268.30174,13.2435088 L265.148821,20.194386 L263.397469,20.194386 L260.329567,13.2435088 L258.859987,20.194386 L256.47465,20.1796491 L259.090747,8.31894737 L261.116583,8.31894737 L264.446823,16.3259649 L268.070979,8.13964912 L269.856338,8.13964912 L272.661901,20.1796491 L269.931639,20.2189474" id="Fill-24" fill="#FFFFFF"></path>
            </g>
        </g>
    </g>
</svg>
