<svg width="100%" height="100%" viewBox="0 0 65 7" version="1.1" xmlns="http://www.w3.org/2000/svg" xml:space="preserve"
     style="fill-rule:evenodd;clip-rule:evenodd;stroke-linejoin:round;stroke-miterlimit:2;"><g id="HR_logo_mini_grijs"><g id="Group-3"><path id="Combined-Shape" d="M1.097,6.601l5.413,0l0,-5.489c0,0 0,-1.112 -1.097,-1.112l-4.317,0c0,0 -1.096,0 -1.096,1.112l0,4.378c0,0 0,1.111 1.097,1.111Zm3.473,-3.292c0.206,-0.239 0.353,-0.501 0.415,-0.746c0.035,-0.137 0.044,-0.269 0.021,-0.39c-0.101,-0.533 -0.774,-0.635 -1.504,-0.231l-0.1,-0.526l-0.774,0.433l0.126,0.659c0.08,-0.051 0.159,-0.083 0.233,-0.091c0.246,-0.026 0.315,0.247 0.155,0.608c-0.057,0.126 -0.135,0.249 -0.223,0.355l0.147,0.773l0.001,0.001l0.001,0.013c0.112,0.524 0.785,0.62 1.515,0.211c0.722,-0.404 1.228,-1.151 1.154,-1.685c-0.029,0.214 -0.237,0.477 -0.516,0.633c-0.297,0.165 -0.57,0.154 -0.651,-0.014c0,-0.002 0,-0.002 0,-0.003Zm-2.164,0.417c-0.246,0.025 -0.316,-0.248 -0.156,-0.609c0.065,-0.144 0.156,-0.28 0.258,-0.394l-0.139,-0.729l-1.521,0.853l0.439,2.317l1.522,-0.851l-0.134,-0.704c-0.092,0.065 -0.185,0.109 -0.269,0.117Z" style="fill:#fff;"/></g><path
    id="Fill-6"
    d="M10.777,4.72l0,-1.203l-1.107,0l0,1.203l-0.581,0l0,-2.863l0.581,0l0,1.123l1.107,0l0,-1.123l0.581,0l0,2.863l-0.581,0"
    style="fill:#fff;"/><path id="Fill-7"
                              d="M13.312,2.37c-0.457,-0.001 -0.85,0.34 -0.85,0.933c0,0.618 0.413,0.929 0.85,0.929c0.463,0 0.853,-0.302 0.853,-0.924c0,-0.601 -0.368,-0.939 -0.853,-0.939Zm-0.034,2.416c-0.804,0 -1.434,-0.598 -1.434,-1.441c0,-0.87 0.621,-1.537 1.48,-1.537c0.829,0 1.464,0.574 1.464,1.45c0,0.909 -0.648,1.528 -1.51,1.528Z"
                              style="fill:#fff;"/><path id="Fill-8"
                                                        d="M16.732,4.768c-0.804,0 -1.55,-0.364 -1.55,-1.468c0,-0.972 0.651,-1.486 1.535,-1.486c0.451,0 0.754,0.131 0.886,0.232l-0.161,0.559c-0.133,-0.109 -0.419,-0.247 -0.759,-0.247c-0.477,0 -0.866,0.298 -0.866,0.942c0,0.635 0.393,0.962 0.974,0.962c0.124,0 0.336,-0.01 0.423,-0.075l0,-0.819l0.564,0l0,1.134c-0.191,0.13 -0.572,0.266 -1.046,0.266"
                                                        style="fill:#fff;"/><path id="Fill-9"
                                                                                  d="M18.351,4.72l0,-2.863l1.708,0l0,0.517l-1.124,0l0,0.601l1.029,0l0,0.522l-1.029,0l0,0.708l1.228,0l0,0.515l-1.812,0"
                                                                                  style="fill:#fff;"/><path id="Fill-10"
                                                                                                            d="M21.569,4.771c-0.506,0 -0.797,-0.164 -0.996,-0.28l0.125,-0.615c0.219,0.181 0.605,0.353 0.829,0.353c0.261,0 0.411,-0.122 0.411,-0.29c0,-0.172 -0.092,-0.291 -0.287,-0.353l-0.381,-0.127c-0.56,-0.185 -0.618,-0.471 -0.618,-0.849c0,-0.358 0.356,-0.803 0.929,-0.803c0.431,0 0.63,0.062 0.87,0.23l-0.136,0.615c-0.261,-0.235 -0.465,-0.3 -0.696,-0.3c-0.213,0 -0.366,0.123 -0.366,0.245c0,0.155 0.088,0.239 0.298,0.31l0.353,0.119c0.531,0.175 0.647,0.479 0.647,0.881c0,0.448 -0.427,0.864 -0.982,0.864"
                                                                                                            style="fill:#fff;"/><path
    id="Fill-11"
    d="M24.365,4.768c-0.702,0 -1.407,-0.371 -1.407,-1.424c0,-0.89 0.506,-1.521 1.439,-1.521c0.514,0 0.845,0.234 0.845,0.234l-0.194,0.564c-0.199,-0.159 -0.389,-0.24 -0.683,-0.24c-0.486,0 -0.806,0.355 -0.806,0.901c0,0.665 0.481,0.909 0.892,0.909c0.324,0 0.493,-0.076 0.688,-0.244l0.199,0.527c-0.294,0.23 -0.626,0.294 -0.973,0.294"
    style="fill:#fff;"/><path id="Fill-12"
                              d="M27.586,4.72l0,-1.203l-1.107,0l0,1.203l-0.581,0l0,-2.863l0.581,0l0,1.123l1.107,0l0,-1.123l0.58,0l0,2.863l-0.58,0"
                              style="fill:#fff;"/><path id="Fill-13"
                                                        d="M30.12,2.37c-0.456,-0.001 -0.85,0.34 -0.85,0.933c0,0.618 0.415,0.929 0.85,0.929c0.465,0 0.855,-0.302 0.855,-0.924c0,-0.601 -0.369,-0.939 -0.855,-0.939Zm-0.033,2.416c-0.805,0 -1.435,-0.598 -1.435,-1.441c0,-0.87 0.622,-1.537 1.48,-1.537c0.83,0 1.465,0.574 1.465,1.45c0,0.909 -0.647,1.528 -1.51,1.528Z"
                                                        style="fill:#fff;"/><path id="Fill-14"
                                                                                  d="M33.454,2.37c-0.456,-0.001 -0.85,0.34 -0.85,0.933c0,0.618 0.415,0.929 0.85,0.929c0.465,0 0.855,-0.302 0.855,-0.924c0,-0.601 -0.37,-0.939 -0.855,-0.939Zm-0.032,2.416c-0.805,0 -1.436,-0.598 -1.436,-1.441c0,-0.87 0.623,-1.537 1.48,-1.537c0.83,0 1.465,0.574 1.465,1.45c0,0.909 -0.648,1.528 -1.509,1.528Z"
                                                                                  style="fill:#fff;"/><path id="Fill-15"
                                                                                                            d="M35.439,4.72l0,-2.863l0.582,0l0,2.334l1.231,0l0,0.529l-1.813,0"
                                                                                                            style="fill:#fff;"/><path
    id="Fill-16"
    d="M40.445,2.369c-0.091,0 -0.199,0.007 -0.277,0.016l0,0.757c0,0 0.171,0.021 0.277,0.021c0.254,0 0.386,-0.173 0.386,-0.417c0,-0.213 -0.145,-0.377 -0.386,-0.377Zm0.714,2.389l-0.813,-1.128l-0.174,-0.004l0,1.118l-0.581,0l0,-2.855c0,0 0.493,-0.038 0.833,-0.038c0.673,0 0.991,0.324 0.991,0.88c0,0.427 -0.252,0.707 -0.451,0.807l0.825,1.092l-0.63,0.128Z"
    style="fill:#fff;"/><path id="Fill-17"
                              d="M43.339,2.393c-0.456,0 -0.85,0.34 -0.85,0.934c0,0.618 0.414,0.931 0.85,0.931c0.464,0 0.855,-0.305 0.855,-0.928c0,-0.599 -0.369,-0.937 -0.855,-0.937Zm-0.032,2.414c-0.804,0 -1.435,-0.596 -1.435,-1.438c0,-0.871 0.622,-1.539 1.481,-1.539c0.829,0 1.462,0.576 1.462,1.451c0,0.908 -0.645,1.526 -1.508,1.526Z"
                              style="fill:#fff;"/><path id="Fill-18"
                                                        d="M46.491,2.44l0,2.304l-0.581,0l0,-2.296l-0.799,0l0,-0.564l2.172,0l0,0.556l-0.792,0"
                                                        style="fill:#fff;"/><path id="Fill-19"
                                                                                  d="M49.053,2.44l0,2.304l-0.579,0l0,-2.296l-0.801,0l0,-0.564l2.173,0l0,0.556l-0.793,0"
                                                                                  style="fill:#fff;"/><path id="Fill-20"
                                                                                                            d="M50.27,4.744l0,-2.863l1.707,0l0,0.517l-1.123,0l0,0.602l1.028,0l0,0.52l-1.028,0l0,0.707l1.228,0l0,0.517l-1.812,0"
                                                                                                            style="fill:#fff;"/><path
    id="Fill-21"
    d="M53.525,2.369c-0.092,0 -0.2,0.007 -0.28,0.016l0,0.757c0,0 0.171,0.021 0.28,0.021c0.252,0 0.385,-0.173 0.385,-0.417c0,-0.213 -0.145,-0.377 -0.385,-0.377Zm0.713,2.389l-0.813,-1.128l-0.174,-0.004l0,1.118l-0.581,0l0,-2.855c0,0 0.494,-0.038 0.833,-0.038c0.672,0 0.991,0.324 0.991,0.88c0,0.427 -0.252,0.707 -0.451,0.807l0.825,1.092l-0.63,0.128Z"
    style="fill:#fff;"/><path id="Fill-22"
                              d="M56.232,2.369c-0.148,0 -0.406,0.02 -0.406,0.02l0,1.847c0.075,0.026 0.224,0.05 0.436,0.05c0.497,0 0.849,-0.471 0.849,-1.011c0,-0.595 -0.464,-0.906 -0.879,-0.906Zm-0.1,2.426c-0.42,0 -0.895,-0.062 -0.895,-0.062l0,-2.849c0,0 0.515,-0.054 0.929,-0.054c1.115,0 1.551,0.605 1.551,1.364c0,0.826 -0.415,1.601 -1.585,1.601Z"
                              style="fill:#fff;"/><path id="Fill-23"
                                                        d="M59.174,2.634l-0.363,0.941l0.693,0l-0.33,-0.941Zm0.767,2.119l-0.291,-0.719l-0.987,0l-0.29,0.71l-0.606,0l1.191,-2.86l0.501,0l1.103,2.863l-0.621,0.006Z"
                                                        style="fill:#fff;"/><path id="Fill-24"
                                                                                  d="M63.922,4.753l-0.386,-1.657l-0.747,1.651l-0.414,0l-0.727,-1.651l-0.348,1.651l-0.565,-0.003l0.62,-2.817l0.48,0l0.788,1.901l0.858,-1.944l0.423,0l0.665,2.86l-0.647,0.009"
                                                                                  style="fill:#fff;"/>
</g>
</svg>
