<svg width="60px" height="45px" viewBox="0 0 60 45" version="1.1" xmlns="http://www.w3.org/2000/svg" xmlns:xlink="http://www.w3.org/1999/xlink">
    <!-- Generator: Sketch 3.6.1 (26313) - http://www.bohemiancoding.com/sketch -->
    <title>Group</title>
    <desc>Created with Sketch.</desc>
    <defs></defs>
    <g id="Page-1" stroke="none" stroke-width="1" fill="none" fill-rule="evenodd">
        <g id="Artboard" fill="#FFFFFF">
            <g id="Group">
                <path d="M45.4550393,22.7411951 C47.9653615,19.8742533 49.7554519,16.7346025 50.5036538,13.7907428 C50.9301988,12.1544882 51.0350869,10.5671814 50.7553853,9.11972549 C49.5316906,2.72854315 41.3574104,1.51184104 32.4768835,6.35067931 L31.2601814,0.0504 L21.8552139,5.23886531 L23.3795878,13.1404365 C24.3585436,12.5250929 25.3235142,12.1405031 26.2115669,12.0496001 C29.2043744,11.7349358 30.0434793,15.0004523 28.1065455,19.3288351 C27.4142839,20.8462165 26.4632984,22.3146501 25.3934396,23.5872925 L27.1765375,32.8524091 L27.1835301,32.8663942 L27.2045077,33.0272227 C28.5680532,39.2995318 36.749326,40.4533011 45.6158678,35.5515299 C54.3915065,30.7056991 60.551935,21.7552468 59.6498973,15.3500794 C59.2932777,17.9233344 56.7619779,21.0769703 53.3705956,22.9369862 C49.769437,24.9228678 46.4409876,24.7900095 45.4620319,22.7691652 C45.4620319,22.7551802 45.4550393,22.7551802 45.4550393,22.7411951" id="Fill-4"></path>
                <path d="M19.1560932,27.7408618 C16.1632857,28.0345485 15.3171882,24.7690319 17.2611146,20.4336566 C18.0442792,18.7134915 19.1560932,17.0842295 20.3937729,15.7136915 L18.7085706,6.98000799 L0.2133,17.1961102 L5.55560121,44.977475 L24.0508718,34.7753579 L22.4286023,26.3283685 C21.3028032,27.1115331 20.1700116,27.6359737 19.1560932,27.7408618" id="Fill-5"></path>
            </g>
        </g>
    </g>
</svg>
