<svg width="65px" height="7px" viewBox="0 0 65 7" version="1.1" xmlns="http://www.w3.org/2000/svg" xmlns:xlink="http://www.w3.org/1999/xlink">
    <!-- Generator: Sketch 3.6.1 (26313) - http://www.bohemiancoding.com/sketch -->
    <title>logo_hr_lichtgrijs</title>
    <desc>Created with Sketch.</desc>
    <defs>
        <path id="path-1" d="M6.50977876,6.965 L0,6.965 L0,3.682 L0,0.399 L6.50977876,0.399 L6.50977876,6.965 L6.50977876,6.965 Z"></path>
    </defs>
    <g id="Page-1" stroke="none" stroke-width="1" fill="none" fill-rule="evenodd">
        <g id="HR_logo_mini_grijs">
            <g id="Group-3">
                <mask id="mask-2" fill="white">
                    <use xlink:href="#path-1"></use>
                </mask>
                <g id="Clip-2"></g>
                <path d="M1.0969469,7 L6.50977876,7 L6.50977876,1.51083333 C6.50977876,1.51083333 6.50977876,0.399 5.41283186,0.399 L1.09637168,0.399 C1.09637168,0.399 0,0.399 0,1.51083333 L0,5.88875 C0,5.88875 0,7 1.0969469,7 Z M4.56955752,3.70825 C4.77606195,3.46908333 4.92331858,3.20716667 4.98486726,2.96158333 C5.01995575,2.82508333 5.02858407,2.69266667 5.00557522,2.57191667 C4.9049115,2.03875 4.23247788,1.93725 3.5019469,2.34091667 L3.40185841,1.81533333 L2.62818584,2.24816667 L2.75358407,2.90733333 C2.83411504,2.856 2.91349558,2.82391667 2.98654867,2.81633333 C3.23274336,2.79008333 3.30176991,3.0625 3.14243363,3.42358333 C3.08548673,3.55016667 3.00725664,3.67266667 2.91924779,3.77883333 L3.0659292,4.55175 L3.06650442,4.55291667 L3.06823009,4.56633333 C3.18039823,5.08958333 3.85340708,5.18583333 4.58278761,4.77691667 C5.30469027,4.37266667 5.81146018,3.626 5.73725664,3.09166667 C5.70792035,3.30633333 5.49969027,3.56941667 5.22070796,3.72458333 C4.92446903,3.89025 4.65066372,3.87916667 4.57013274,3.71058333 C4.57013274,3.70941667 4.56955752,3.70941667 4.56955752,3.70825 Z M2.40615044,4.12533333 C2.15995575,4.14983333 2.09035398,3.87741667 2.25026549,3.51575 C2.31469027,3.37225 2.40615044,3.23633333 2.5079646,3.122 L2.36933628,2.39341667 L0.847876106,3.24566667 L1.28734513,5.56325 L2.80880531,4.71216667 L2.67535398,4.0075 C2.58274336,4.07283333 2.48955752,4.11658333 2.40615044,4.12533333 Z" id="Combined-Shape" fill="#D9D9D9" mask="url(#mask-2)"></path>
            </g>
            <path d="M10.7773451,5.11933333 L10.7773451,3.91591667 L9.67004425,3.91591667 L9.67004425,5.11933333 L9.0890708,5.11933333 L9.0890708,2.25633333 L9.67004425,2.25633333 L9.67004425,3.37866667 L10.7773451,3.37866667 L10.7773451,2.25633333 L11.3577434,2.25633333 L11.3577434,5.11933333 L10.7773451,5.11933333" id="Fill-6" fill="#D9D9D9"></path>
            <path d="M13.3117699,2.7685 C12.8550442,2.7685 12.4615929,3.10916667 12.4615929,3.70241667 C12.4615929,4.31958333 12.875177,4.63108333 13.3117699,4.63108333 C13.7753982,4.63108333 14.1653982,4.32891667 14.1653982,3.70708333 C14.1653982,3.10566667 13.7966814,2.7685 13.3117699,2.7685 L13.3117699,2.7685 Z M13.2784071,5.18408333 C12.4736726,5.18408333 11.8438053,4.58558333 11.8438053,3.74325 C11.8438053,2.8735 12.4650442,2.20558333 13.3238496,2.20558333 C14.1533186,2.20558333 14.7877876,2.78016667 14.7877876,3.65633333 C14.7877876,4.56458333 14.1400885,5.18408333 13.2784071,5.18408333 L13.2784071,5.18408333 Z" id="Fill-7" fill="#D9D9D9"></path>
            <path d="M16.7320354,5.16716667 C15.9284513,5.16716667 15.1818142,4.80316667 15.1818142,3.69891667 C15.1818142,2.7265 15.8329646,2.21316667 16.7165044,2.21316667 C17.1680531,2.21316667 17.4711947,2.34383333 17.6034956,2.44533333 L17.4418584,3.00416667 C17.3089823,2.89508333 17.0225221,2.75683333 16.6831416,2.75683333 C16.2062832,2.75683333 15.8168584,3.0555 15.8168584,3.69891667 C15.8168584,4.33358333 16.2103097,4.66141667 16.7912832,4.66141667 C16.9149558,4.66141667 17.1266372,4.65091667 17.2140708,4.58558333 L17.2140708,3.76658333 L17.7777876,3.76658333 L17.7777876,4.90116667 C17.5868142,5.03125 17.2060177,5.16716667 16.7320354,5.16716667" id="Fill-8" fill="#D9D9D9"></path>
            <path d="M18.350708,5.11933333 L18.350708,2.25633333 L20.059115,2.25633333 L20.059115,2.77258333 L18.9351327,2.77258333 L18.9351327,3.374 L19.9636283,3.374 L19.9636283,3.8955 L18.9351327,3.8955 L18.9351327,4.60366667 L20.1632301,4.60366667 L20.1632301,5.11933333 L18.350708,5.11933333" id="Fill-9" fill="#D9D9D9"></path>
            <path d="M21.5690708,5.17008333 C21.0628761,5.17008333 20.7718142,5.00616667 20.5727876,4.8895 L20.6976106,4.27466667 C20.9167699,4.45608333 21.3027434,4.62758333 21.5270796,4.62758333 C21.7882301,4.62758333 21.9377876,4.50625 21.9377876,4.33766667 C21.9377876,4.16558333 21.8463274,4.04658333 21.6513274,3.98475 L21.2699558,3.85816667 C20.7096903,3.67266667 20.6515929,3.38741667 20.6515929,3.00883333 C20.6515929,2.65066667 21.0082301,2.20558333 21.5805752,2.20558333 C22.0119912,2.20558333 22.2110177,2.268 22.4514602,2.436 L22.3151327,3.05083333 C22.0539823,2.81575 21.850354,2.751 21.6185398,2.751 C21.4062832,2.751 21.2532743,2.8735 21.2532743,2.996 C21.2532743,3.15116667 21.340708,3.23516667 21.5512389,3.30633333 L21.9038496,3.42475 C22.435354,3.60033333 22.5509735,3.90366667 22.5509735,4.30558333 C22.5509735,4.75358333 22.1241593,5.17008333 21.5690708,5.17008333" id="Fill-10" fill="#D9D9D9"></path>
            <path d="M24.364646,5.16716667 C23.6628761,5.16716667 22.9582301,4.79616667 22.9582301,3.74325 C22.9582301,2.8525 23.4638496,2.22191667 24.3974336,2.22191667 C24.9111062,2.22191667 25.2424336,2.45641667 25.2424336,2.45641667 L25.0480088,3.01991667 C24.8489823,2.86125 24.6585841,2.78016667 24.364646,2.78016667 C23.8785841,2.78016667 23.5593363,3.13483333 23.5593363,3.68083333 C23.5593363,4.34641667 24.0402212,4.58966667 24.4509292,4.58966667 C24.7747788,4.58966667 24.944469,4.51383333 25.139469,4.34641667 L25.3384956,4.87258333 C25.0439823,5.103 24.7120796,5.16716667 24.364646,5.16716667" id="Fill-11" fill="#D9D9D9"></path>
            <path d="M27.585885,5.11933333 L27.585885,3.91591667 L26.4791593,3.91591667 L26.4791593,5.11933333 L25.8981858,5.11933333 L25.8981858,2.25633333 L26.4791593,2.25633333 L26.4791593,3.37866667 L27.585885,3.37866667 L27.585885,2.25633333 L28.1662832,2.25633333 L28.1662832,5.11933333 L27.585885,5.11933333" id="Fill-12" fill="#D9D9D9"></path>
            <path d="M30.1203097,2.7685 C29.6641593,2.7685 29.2701327,3.10916667 29.2701327,3.70241667 C29.2701327,4.31958333 29.6848673,4.63108333 30.1203097,4.63108333 C30.5850885,4.63108333 30.9745133,4.32891667 30.9745133,3.70708333 C30.9745133,3.10566667 30.6057965,2.7685 30.1203097,2.7685 L30.1203097,2.7685 Z M30.0869469,5.18408333 C29.2822124,5.18408333 28.6523451,4.58558333 28.6523451,3.74325 C28.6523451,2.8735 29.2741593,2.20558333 30.1323894,2.20558333 C30.9618584,2.20558333 31.5969027,2.78016667 31.5969027,3.65633333 C31.5969027,4.56458333 30.950354,5.18408333 30.0869469,5.18408333 L30.0869469,5.18408333 Z" id="Fill-13" fill="#D9D9D9"></path>
            <path d="M33.4537168,2.7685 C32.9975664,2.7685 32.6035398,3.10916667 32.6035398,3.70241667 C32.6035398,4.31958333 33.0194248,4.63108333 33.4537168,4.63108333 C33.9190708,4.63108333 34.3090708,4.32891667 34.3090708,3.70708333 C34.3090708,3.10566667 33.9392035,2.7685 33.4537168,2.7685 L33.4537168,2.7685 Z M33.4215044,5.18408333 C32.6167699,5.18408333 31.9863274,4.58558333 31.9863274,3.74325 C31.9863274,2.8735 32.6087168,2.20558333 33.4663717,2.20558333 C34.2958407,2.20558333 34.930885,2.78016667 34.930885,3.65633333 C34.930885,4.56458333 34.2831858,5.18408333 33.4215044,5.18408333 L33.4215044,5.18408333 Z" id="Fill-14" fill="#D9D9D9"></path>
            <path d="M35.4393805,5.11933333 L35.4393805,2.25633333 L36.0209292,2.25633333 L36.0209292,4.58966667 L37.2524779,4.58966667 L37.2524779,5.11933333 L35.4393805,5.11933333" id="Fill-15" fill="#D9D9D9"></path>
            <path d="M40.4449558,2.76791667 C40.3540708,2.76791667 40.2459292,2.77491667 40.1676991,2.78425 L40.1676991,3.54141667 C40.1676991,3.54141667 40.3385398,3.56241667 40.4449558,3.56241667 C40.6986283,3.56241667 40.8309292,3.38916667 40.8309292,3.14475 C40.8309292,2.93241667 40.6859735,2.76791667 40.4449558,2.76791667 L40.4449558,2.76791667 Z M41.1588053,5.15725 L40.3460177,4.02908333 L40.1723009,4.025 L40.1723009,5.14266667 L39.5913274,5.14266667 L39.5913274,2.28783333 C39.5913274,2.28783333 40.084292,2.24991667 40.4236726,2.24991667 C41.0966814,2.24991667 41.415354,2.57366667 41.415354,3.13016667 C41.415354,3.55658333 41.1628319,3.83658333 40.9643805,3.93691667 L41.7892478,5.0295 L41.1588053,5.15725 L41.1588053,5.15725 Z" id="Fill-16" fill="#D9D9D9"></path>
            <path d="M43.3388938,2.79241667 C42.8833186,2.79241667 42.4887168,3.1325 42.4887168,3.72575 C42.4887168,4.34408333 42.9028761,4.65675 43.3388938,4.65675 C43.8030973,4.65675 44.1942478,4.35225 44.1942478,3.72925 C44.1942478,3.13016667 43.8249558,2.79241667 43.3388938,2.79241667 L43.3388938,2.79241667 Z M43.3066814,5.20625 C42.5025221,5.20625 41.8715044,4.61008333 41.8715044,3.76775 C41.8715044,2.89741667 42.4938938,2.22891667 43.3526991,2.22891667 C44.1815929,2.22891667 44.8154867,2.80466667 44.8154867,3.67966667 C44.8154867,4.5885 44.1695133,5.20625 43.3066814,5.20625 L43.3066814,5.20625 Z" id="Fill-17" fill="#D9D9D9"></path>
            <path d="M46.4911062,2.83908333 L46.4911062,5.14266667 L45.9101327,5.14266667 L45.9101327,2.84666667 L45.1105752,2.84666667 L45.1105752,2.28316667 L47.2831858,2.28316667 L47.2831858,2.83908333 L46.4911062,2.83908333" id="Fill-18" fill="#D9D9D9"></path>
            <path d="M49.0525664,2.83908333 L49.0525664,5.14266667 L48.4738938,5.14266667 L48.4738938,2.84666667 L47.6731858,2.84666667 L47.6731858,2.28316667 L49.8457965,2.28316667 L49.8457965,2.83908333 L49.0525664,2.83908333" id="Fill-19" fill="#D9D9D9"></path>
            <path d="M50.2697345,5.14266667 L50.2697345,2.27966667 L51.9769912,2.27966667 L51.9769912,2.7965 L50.8535841,2.7965 L50.8535841,3.3985 L51.8820796,3.3985 L51.8820796,3.91941667 L50.8535841,3.91941667 L50.8535841,4.62641667 L52.0816814,4.62641667 L52.0816814,5.14266667 L50.2697345,5.14266667" id="Fill-20" fill="#D9D9D9"></path>
            <path d="M53.5249115,2.76791667 C53.4328761,2.76791667 53.3253097,2.77491667 53.245354,2.78425 L53.245354,3.54141667 C53.245354,3.54141667 53.4161947,3.56241667 53.5249115,3.56241667 C53.7774336,3.56241667 53.9097345,3.38916667 53.9097345,3.14475 C53.9097345,2.93241667 53.765354,2.76791667 53.5249115,2.76791667 L53.5249115,2.76791667 Z M54.2376106,5.15725 L53.424823,4.02908333 L53.2511062,4.025 L53.2511062,5.14266667 L52.6695575,5.14266667 L52.6695575,2.28783333 C52.6695575,2.28783333 53.1642478,2.24991667 53.5030531,2.24991667 C54.1754867,2.24991667 54.4935841,2.57366667 54.4935841,3.13016667 C54.4935841,3.55658333 54.2416372,3.83658333 54.0431858,3.93691667 L54.8680531,5.0295 L54.2376106,5.15725 L54.2376106,5.15725 Z" id="Fill-21" fill="#D9D9D9"></path>
            <path d="M56.2319027,2.76791667 C56.0840708,2.76791667 55.8257965,2.78833333 55.8257965,2.78833333 L55.8257965,4.63458333 C55.9005752,4.66083333 56.0495575,4.68475 56.2618142,4.68475 C56.7593805,4.68475 57.1114159,4.214 57.1114159,3.67383333 C57.1114159,3.07883333 56.6466372,2.76791667 56.2319027,2.76791667 L56.2319027,2.76791667 Z M56.1323894,5.194 C55.7124779,5.194 55.2373451,5.13216667 55.2373451,5.13216667 L55.2373451,2.28316667 C55.2373451,2.28316667 55.7515929,2.22891667 56.1663274,2.22891667 C57.2811062,2.22891667 57.7165487,2.83441667 57.7165487,3.59275 C57.7165487,4.41933333 57.3023894,5.194 56.1323894,5.194 L56.1323894,5.194 Z" id="Fill-22" fill="#D9D9D9"></path>
            <path d="M59.1735841,3.03275 L58.8111947,3.97425 L59.5043363,3.97425 L59.1735841,3.03275 L59.1735841,3.03275 Z M59.9409292,5.152 L59.6498673,4.43275 L58.6627876,4.43275 L58.3728761,5.14266667 L57.7671681,5.14266667 L58.9578761,2.28316667 L59.4588938,2.28316667 L60.5621681,5.14616667 L59.9409292,5.152 L59.9409292,5.152 Z" id="Fill-23" fill="#D9D9D9"></path>
            <path d="M63.9220354,5.152 L63.5360619,3.49533333 L62.7894248,5.14616667 L62.3746903,5.14616667 L61.6481858,3.49533333 L61.300177,5.14616667 L60.7353097,5.14266667 L61.354823,2.32575 L61.8345575,2.32575 L62.6231858,4.22741667 L63.4814159,2.28316667 L63.9042035,2.28316667 L64.5685841,5.14266667 L63.9220354,5.152" id="Fill-24" fill="#D9D9D9"></path>
        </g>
    </g>
</svg>
