<?xml version="1.0" standalone="no"?>
<!DOCTYPE svg PUBLIC "-//W3C//DTD SVG 20010904//EN"
 "http://www.w3.org/TR/2001/REC-SVG-20010904/DTD/svg10.dtd">
<svg version="1.0" xmlns="http://www.w3.org/2000/svg"
 width="130.000000pt" height="130.000000pt" viewBox="0 0 130.000000 130.000000"
 preserveAspectRatio="xMidYMid meet">
<metadata>
Created by potrace 1.14, written by Peter Selinger 2001-2017
</metadata>
<g transform="translate(0.000000,130.000000) scale(0.100000,-0.100000)"
fill="#000000" stroke="none">
<path d="M535 1284 c-5 -1 -36 -10 -68 -19 -84 -23 -97 -40 -97 -124 l0 -68
-184 -48 -184 -48 1 -360 2 -361 283 -122 283 -123 72 23 c40 13 178 58 307
99 129 42 261 84 292 94 l58 17 -1 352 c-1 193 -4 356 -8 361 -3 5 -85 40
-181 78 -96 37 -177 70 -180 72 -2 2 -5 24 -6 49 -2 57 -21 78 -93 105 -43 17
-82 22 -171 24 -63 1 -119 1 -125 -1z"/>
</g>
</svg>
